<svg xmlns="http://www.w3.org/2000/svg" width="512" height="512" viewBox="0 0 512 512">
<g>
<path d="M 256.00 0.00 L 512.00 0.00 L 387.75 0.15 C320.42,0.23 266.46,0.46 266.46,0.66 C266.46,0.66 266.48,0.66 266.50,0.67 C287.36,3.22 301.19,8.15 317.43,18.86 C335.51,30.77 351.17,50.72 358.88,71.65 C365.53,89.74 365.31,86.47 365.74,174.50 C366.01,230.28 365.79,257.50 364.99,264.39 C360.18,306.14 333.16,340.54 293.41,355.50 C284.84,358.72 268.81,362.00 261.59,362.00 L 256.00 362.00 L 256.00 0.00 Z" fill="rgb(122,119,128)"/>
<path d="M 0.00 0.00 L 256.00 0.00 L 256.00 362.00 L 258.07 362.00 C251.77,362.10 245.40,361.65 239.00,360.61 C195.39,353.51 160.45,321.41 149.60,278.50 C146.60,266.64 146.00,250.43 146.00,181.00 C146.01,106.71 146.58,94.21 150.60,80.12 C162.82,37.38 199.29,6.19 243.50,0.67 C243.52,0.67 243.54,0.67 243.54,0.66 C243.54,0.46 190.03,0.23 123.25,0.15 ZM 286.27 0.44 C270.87,0.67 271.85,1.09 276.00,1.92 C292.37,5.19 303.74,9.84 317.43,18.86 C301.19,8.15 287.36,3.22 266.50,0.67 C266.48,0.66 266.46,0.66 266.46,0.66 C266.46,0.58 273.74,0.51 286.27,0.44 ZM 364.32 269.30 C363.66,274.41 362.74,278.13 361.48,282.46 C359.95,287.75 358.05,292.85 355.82,297.72 C359.85,288.83 362.73,279.29 364.32,269.30 ZM 365.71 243.16 C365.89,228.39 365.90,206.00 365.74,174.50 C365.90,207.21 365.95,228.50 365.71,243.16 ZM 286.75 357.63 C282.34,358.92 277.84,359.94 273.26,360.67 C277.71,359.88 282.51,358.80 286.75,357.63 ZM 319.57 341.63 C314.24,345.43 308.59,348.75 302.67,351.55 C308.66,348.69 314.31,345.37 319.57,341.63 Z" fill="rgb(139,138,146)"/>
<path d="M 271.00 512.00 L 241.00 512.00 L 241.00 434.09 L 237.75 433.60 C197.18,427.47 169.89,416.72 144.00,396.66 C98.81,361.66 72.66,313.21 69.39,258.42 L 68.70 246.94 L 83.60 247.22 L 98.50 247.50 L 99.16 257.00 C101.90,296.74 117.24,330.35 145.50,358.50 C169.85,382.75 200.26,397.91 234.69,402.95 C244.82,404.43 268.92,404.22 279.00,402.57 C303.03,398.62 325.30,390.07 342.88,378.03 C383.59,350.15 407.99,308.96 412.34,260.78 L 413.54 247.50 L 443.67 246.95 L 443.29 255.22 C442.76,266.46 440.35,282.53 437.46,294.00 C426.23,338.58 396.90,379.10 357.38,404.61 C333.95,419.73 304.46,430.29 276.75,433.48 L 271.00 434.14 ZM 302.71 351.53 C308.41,348.81 313.81,345.66 318.86,342.13 C313.74,345.72 308.35,348.87 302.71,351.53 Z" fill="rgb(250,96,29)"/>
<path d="M 0.00 256.00 L 0.00 0.00 L 123.25 0.15 C191.04,0.23 245.15,0.47 243.50,0.67 C199.29,6.19 162.82,37.38 150.60,80.12 C146.58,94.21 146.01,106.71 146.00,181.00 C146.00,250.43 146.60,266.64 149.60,278.50 C160.45,321.41 195.39,353.51 239.00,360.61 C293.28,369.45 346.03,335.79 361.48,282.46 C365.85,267.38 366.16,259.70 365.74,174.50 C365.31,86.47 365.53,89.74 358.88,71.65 C351.17,50.72 335.51,30.77 317.43,18.86 C303.74,9.84 292.37,5.19 276.00,1.92 C267.81,0.29 271.96,0.22 389.75,0.11 L 512.00 0.00 L 512.00 256.00 L 512.00 512.00 L 391.50 512.00 L 271.00 512.00 L 271.00 473.07 L 271.00 434.14 L 276.75 433.48 C304.46,430.29 333.95,419.73 357.38,404.61 C396.90,379.10 426.23,338.58 437.46,294.00 C440.35,282.53 442.76,266.46 443.29,255.22 L 443.67 246.95 L 428.60 247.22 L 413.54 247.50 L 412.34 260.78 C407.99,308.96 383.59,350.15 342.88,378.03 C325.30,390.07 303.03,398.62 279.00,402.57 C268.92,404.22 244.82,404.43 234.69,402.95 C200.26,397.91 169.85,382.75 145.50,358.50 C117.24,330.35 101.90,296.74 99.16,257.00 L 98.50 247.50 L 83.60 247.22 L 68.70 246.94 L 69.39 258.42 C72.66,313.21 98.81,361.66 144.00,396.66 C169.89,416.72 197.18,427.47 237.75,433.60 L 241.00 434.09 L 241.00 473.05 L 241.00 512.00 L 120.50 512.00 L 0.00 512.00 L 0.00 256.00 Z" fill="rgb(254,254,254)"/>
</g>
</svg>